<mxfile host="app.diagrams.net" modified="2023-04-26T17:48:37.430Z" agent="Mozilla/5.0 (Windows NT 10.0; Win64; x64) AppleWebKit/537.36 (KHTML, like Gecko) Chrome/112.0.0.0 Safari/537.36" etag="O24QnD-QaxnnYSJDc-KJ" version="21.2.1" type="device">
  <diagram name="Page-1" id="w7oHSvgVAbH0pyMqGxMP">
    <mxGraphModel dx="2064" dy="1507" grid="1" gridSize="10" guides="1" tooltips="1" connect="1" arrows="1" fold="1" page="1" pageScale="1" pageWidth="827" pageHeight="1169" math="0" shadow="0">
      <root>
        <mxCell id="0" />
        <mxCell id="1" parent="0" />
        <mxCell id="mfq0lbZQkEfi0OqsZ-nj-1" value="" style="rounded=0;whiteSpace=wrap;html=1;" vertex="1" parent="1">
          <mxGeometry x="40" y="40" width="850" height="495" as="geometry" />
        </mxCell>
        <mxCell id="DkgX6Icj-PClaKJuhvbE-4" value="" style="rounded=0;whiteSpace=wrap;html=1;fontSize=14;fontStyle=1" parent="1" vertex="1">
          <mxGeometry x="100" y="390" width="720" height="50" as="geometry" />
        </mxCell>
        <mxCell id="DkgX6Icj-PClaKJuhvbE-1" value="" style="rounded=1;whiteSpace=wrap;html=1;fontSize=14;fontStyle=1" parent="1" vertex="1">
          <mxGeometry x="120" y="80" width="200" height="320" as="geometry" />
        </mxCell>
        <mxCell id="DkgX6Icj-PClaKJuhvbE-9" value="App 1 - dotnet 7.0" style="text;html=1;strokeColor=none;fillColor=none;align=center;verticalAlign=middle;whiteSpace=wrap;rounded=0;fontSize=14;fontStyle=1" parent="1" vertex="1">
          <mxGeometry x="140" y="90" width="160" height="30" as="geometry" />
        </mxCell>
        <mxCell id="DkgX6Icj-PClaKJuhvbE-10" value="" style="rounded=1;whiteSpace=wrap;html=1;fontSize=14;fontStyle=1" parent="1" vertex="1">
          <mxGeometry x="360" y="80" width="200" height="320" as="geometry" />
        </mxCell>
        <mxCell id="DkgX6Icj-PClaKJuhvbE-16" value="App 2 - dotnet 7.0" style="text;html=1;strokeColor=none;fillColor=none;align=center;verticalAlign=middle;whiteSpace=wrap;rounded=0;fontSize=14;fontStyle=1" parent="1" vertex="1">
          <mxGeometry x="380" y="90" width="160" height="30" as="geometry" />
        </mxCell>
        <mxCell id="DkgX6Icj-PClaKJuhvbE-17" value="" style="rounded=1;whiteSpace=wrap;html=1;fontSize=14;fontStyle=1" parent="1" vertex="1">
          <mxGeometry x="600" y="80" width="200" height="320" as="geometry" />
        </mxCell>
        <mxCell id="DkgX6Icj-PClaKJuhvbE-23" value="App 3 - dotnet 6.0" style="text;html=1;strokeColor=none;fillColor=none;align=center;verticalAlign=middle;whiteSpace=wrap;rounded=0;fontSize=14;fontStyle=1" parent="1" vertex="1">
          <mxGeometry x="620" y="90" width="160" height="30" as="geometry" />
        </mxCell>
        <mxCell id="DkgX6Icj-PClaKJuhvbE-24" value="docker host" style="text;html=1;strokeColor=none;fillColor=none;align=center;verticalAlign=middle;whiteSpace=wrap;rounded=0;fontSize=14;fontStyle=1" parent="1" vertex="1">
          <mxGeometry x="390" y="410" width="150" height="30" as="geometry" />
        </mxCell>
        <mxCell id="mfq0lbZQkEfi0OqsZ-nj-2" value="" style="rounded=0;whiteSpace=wrap;html=1;" vertex="1" parent="1">
          <mxGeometry x="960" y="40" width="850" height="495" as="geometry" />
        </mxCell>
        <mxCell id="mfq0lbZQkEfi0OqsZ-nj-3" value="" style="rounded=0;whiteSpace=wrap;html=1;fontSize=14;fontStyle=1" vertex="1" parent="1">
          <mxGeometry x="1020" y="390" width="720" height="50" as="geometry" />
        </mxCell>
        <mxCell id="mfq0lbZQkEfi0OqsZ-nj-4" value="" style="rounded=1;whiteSpace=wrap;html=1;fontSize=14;fontStyle=1" vertex="1" parent="1">
          <mxGeometry x="1040" y="80" width="200" height="320" as="geometry" />
        </mxCell>
        <mxCell id="mfq0lbZQkEfi0OqsZ-nj-5" value="Layer 1 - hashbase1" style="rounded=0;whiteSpace=wrap;html=1;fontSize=14;fontStyle=1" vertex="1" parent="1">
          <mxGeometry x="1060" y="340" width="160" height="40" as="geometry" />
        </mxCell>
        <mxCell id="mfq0lbZQkEfi0OqsZ-nj-6" value="Layer 2 - hashbase2" style="rounded=0;whiteSpace=wrap;html=1;fontSize=14;fontStyle=1" vertex="1" parent="1">
          <mxGeometry x="1060" y="290" width="160" height="40" as="geometry" />
        </mxCell>
        <mxCell id="mfq0lbZQkEfi0OqsZ-nj-7" value="Layer 3 - hashruntime7" style="rounded=0;whiteSpace=wrap;html=1;fontSize=14;fontStyle=1" vertex="1" parent="1">
          <mxGeometry x="1060" y="240" width="160" height="40" as="geometry" />
        </mxCell>
        <mxCell id="mfq0lbZQkEfi0OqsZ-nj-8" value="Layer 4 - hashapp1" style="rounded=0;whiteSpace=wrap;html=1;fontSize=14;fontStyle=1" vertex="1" parent="1">
          <mxGeometry x="1060" y="180" width="160" height="40" as="geometry" />
        </mxCell>
        <mxCell id="mfq0lbZQkEfi0OqsZ-nj-9" value="Layer 5 - hashcmd1" style="rounded=0;whiteSpace=wrap;html=1;fontSize=14;fontStyle=1" vertex="1" parent="1">
          <mxGeometry x="1060" y="130" width="160" height="40" as="geometry" />
        </mxCell>
        <mxCell id="mfq0lbZQkEfi0OqsZ-nj-10" value="App 1 - dotnet 7.0" style="text;html=1;strokeColor=none;fillColor=none;align=center;verticalAlign=middle;whiteSpace=wrap;rounded=0;fontSize=14;fontStyle=1" vertex="1" parent="1">
          <mxGeometry x="1060" y="90" width="160" height="30" as="geometry" />
        </mxCell>
        <mxCell id="mfq0lbZQkEfi0OqsZ-nj-11" value="" style="rounded=1;whiteSpace=wrap;html=1;fontSize=14;fontStyle=1" vertex="1" parent="1">
          <mxGeometry x="1280" y="80" width="200" height="320" as="geometry" />
        </mxCell>
        <mxCell id="mfq0lbZQkEfi0OqsZ-nj-12" value="Layer 1 - hashbase1" style="rounded=0;whiteSpace=wrap;html=1;fontSize=14;fontStyle=1" vertex="1" parent="1">
          <mxGeometry x="1300" y="340" width="160" height="40" as="geometry" />
        </mxCell>
        <mxCell id="mfq0lbZQkEfi0OqsZ-nj-13" value="Layer 2 - hashbase2" style="rounded=0;whiteSpace=wrap;html=1;fontSize=14;fontStyle=1" vertex="1" parent="1">
          <mxGeometry x="1300" y="290" width="160" height="40" as="geometry" />
        </mxCell>
        <mxCell id="mfq0lbZQkEfi0OqsZ-nj-14" value="Layer 3 - hashruntime7" style="rounded=0;whiteSpace=wrap;html=1;fontSize=14;fontStyle=1" vertex="1" parent="1">
          <mxGeometry x="1300" y="240" width="160" height="40" as="geometry" />
        </mxCell>
        <mxCell id="mfq0lbZQkEfi0OqsZ-nj-15" value="Layer 4 - hashapp2" style="rounded=0;whiteSpace=wrap;html=1;fontSize=14;fontStyle=1" vertex="1" parent="1">
          <mxGeometry x="1300" y="180" width="160" height="40" as="geometry" />
        </mxCell>
        <mxCell id="mfq0lbZQkEfi0OqsZ-nj-16" value="Layer 5 - hashcmd2" style="rounded=0;whiteSpace=wrap;html=1;fontSize=14;fontStyle=1" vertex="1" parent="1">
          <mxGeometry x="1300" y="130" width="160" height="40" as="geometry" />
        </mxCell>
        <mxCell id="mfq0lbZQkEfi0OqsZ-nj-17" value="App 2 - dotnet 7.0" style="text;html=1;strokeColor=none;fillColor=none;align=center;verticalAlign=middle;whiteSpace=wrap;rounded=0;fontSize=14;fontStyle=1" vertex="1" parent="1">
          <mxGeometry x="1300" y="90" width="160" height="30" as="geometry" />
        </mxCell>
        <mxCell id="mfq0lbZQkEfi0OqsZ-nj-18" value="" style="rounded=1;whiteSpace=wrap;html=1;fontSize=14;fontStyle=1" vertex="1" parent="1">
          <mxGeometry x="1520" y="80" width="200" height="320" as="geometry" />
        </mxCell>
        <mxCell id="mfq0lbZQkEfi0OqsZ-nj-19" value="Layer 1 - hashbase1" style="rounded=0;whiteSpace=wrap;html=1;fontSize=14;fontStyle=1" vertex="1" parent="1">
          <mxGeometry x="1540" y="340" width="160" height="40" as="geometry" />
        </mxCell>
        <mxCell id="mfq0lbZQkEfi0OqsZ-nj-20" value="Layer 2 - hashbase2" style="rounded=0;whiteSpace=wrap;html=1;fontSize=14;fontStyle=1" vertex="1" parent="1">
          <mxGeometry x="1540" y="290" width="160" height="40" as="geometry" />
        </mxCell>
        <mxCell id="mfq0lbZQkEfi0OqsZ-nj-21" value="Layer 3 - hashruntime6" style="rounded=0;whiteSpace=wrap;html=1;fontSize=14;fontStyle=1" vertex="1" parent="1">
          <mxGeometry x="1540" y="240" width="160" height="40" as="geometry" />
        </mxCell>
        <mxCell id="mfq0lbZQkEfi0OqsZ-nj-22" value="Layer 4 - hashapp3" style="rounded=0;whiteSpace=wrap;html=1;fontSize=14;fontStyle=1" vertex="1" parent="1">
          <mxGeometry x="1540" y="180" width="160" height="40" as="geometry" />
        </mxCell>
        <mxCell id="mfq0lbZQkEfi0OqsZ-nj-23" value="Layer 5 - hashcmd3" style="rounded=0;whiteSpace=wrap;html=1;fontSize=14;fontStyle=1" vertex="1" parent="1">
          <mxGeometry x="1540" y="130" width="160" height="40" as="geometry" />
        </mxCell>
        <mxCell id="mfq0lbZQkEfi0OqsZ-nj-24" value="App 3 - dotnet 6.0" style="text;html=1;strokeColor=none;fillColor=none;align=center;verticalAlign=middle;whiteSpace=wrap;rounded=0;fontSize=14;fontStyle=1" vertex="1" parent="1">
          <mxGeometry x="1540" y="90" width="160" height="30" as="geometry" />
        </mxCell>
        <mxCell id="mfq0lbZQkEfi0OqsZ-nj-25" value="docker host" style="text;html=1;strokeColor=none;fillColor=none;align=center;verticalAlign=middle;whiteSpace=wrap;rounded=0;fontSize=14;fontStyle=1" vertex="1" parent="1">
          <mxGeometry x="1310" y="410" width="150" height="30" as="geometry" />
        </mxCell>
        <mxCell id="mfq0lbZQkEfi0OqsZ-nj-35" value="" style="rounded=0;whiteSpace=wrap;html=1;" vertex="1" parent="1">
          <mxGeometry x="40" y="600" width="850" height="495" as="geometry" />
        </mxCell>
        <mxCell id="mfq0lbZQkEfi0OqsZ-nj-36" value="" style="rounded=0;whiteSpace=wrap;html=1;fontSize=14;fontStyle=1" vertex="1" parent="1">
          <mxGeometry x="100" y="950" width="720" height="50" as="geometry" />
        </mxCell>
        <mxCell id="mfq0lbZQkEfi0OqsZ-nj-37" value="" style="rounded=1;whiteSpace=wrap;html=1;fontSize=14;fontStyle=1" vertex="1" parent="1">
          <mxGeometry x="120" y="640" width="200" height="320" as="geometry" />
        </mxCell>
        <mxCell id="mfq0lbZQkEfi0OqsZ-nj-38" value="Layer 1 - hashbase1" style="rounded=0;whiteSpace=wrap;html=1;fontSize=14;fontStyle=1" vertex="1" parent="1">
          <mxGeometry x="140" y="900" width="160" height="40" as="geometry" />
        </mxCell>
        <mxCell id="mfq0lbZQkEfi0OqsZ-nj-39" value="Layer 2 - hashbase2" style="rounded=0;whiteSpace=wrap;html=1;fontSize=14;fontStyle=1" vertex="1" parent="1">
          <mxGeometry x="140" y="850" width="160" height="40" as="geometry" />
        </mxCell>
        <mxCell id="mfq0lbZQkEfi0OqsZ-nj-40" value="Layer 3 - hashruntime7" style="rounded=0;whiteSpace=wrap;html=1;fontSize=14;fontStyle=1" vertex="1" parent="1">
          <mxGeometry x="140" y="800" width="160" height="40" as="geometry" />
        </mxCell>
        <mxCell id="mfq0lbZQkEfi0OqsZ-nj-41" value="Layer 4 - hashapp1" style="rounded=0;whiteSpace=wrap;html=1;fontSize=14;fontStyle=1" vertex="1" parent="1">
          <mxGeometry x="140" y="740" width="160" height="40" as="geometry" />
        </mxCell>
        <mxCell id="mfq0lbZQkEfi0OqsZ-nj-42" value="Layer 5 - hashcmd1" style="rounded=0;whiteSpace=wrap;html=1;fontSize=14;fontStyle=1" vertex="1" parent="1">
          <mxGeometry x="140" y="690" width="160" height="40" as="geometry" />
        </mxCell>
        <mxCell id="mfq0lbZQkEfi0OqsZ-nj-43" value="App 1 - dotnet 7.0" style="text;html=1;strokeColor=none;fillColor=none;align=center;verticalAlign=middle;whiteSpace=wrap;rounded=0;fontSize=14;fontStyle=1" vertex="1" parent="1">
          <mxGeometry x="140" y="650" width="160" height="30" as="geometry" />
        </mxCell>
        <mxCell id="mfq0lbZQkEfi0OqsZ-nj-44" value="" style="rounded=1;whiteSpace=wrap;html=1;fontSize=14;fontStyle=1" vertex="1" parent="1">
          <mxGeometry x="360" y="640" width="200" height="320" as="geometry" />
        </mxCell>
        <mxCell id="mfq0lbZQkEfi0OqsZ-nj-45" value="Layer 1 - hashbase1" style="rounded=0;whiteSpace=wrap;html=1;fontSize=14;fontStyle=1" vertex="1" parent="1">
          <mxGeometry x="380" y="900" width="160" height="40" as="geometry" />
        </mxCell>
        <mxCell id="mfq0lbZQkEfi0OqsZ-nj-46" value="Layer 2 - hashbase2" style="rounded=0;whiteSpace=wrap;html=1;fontSize=14;fontStyle=1" vertex="1" parent="1">
          <mxGeometry x="380" y="850" width="160" height="40" as="geometry" />
        </mxCell>
        <mxCell id="mfq0lbZQkEfi0OqsZ-nj-47" value="Layer 3 - hashruntime7" style="rounded=0;whiteSpace=wrap;html=1;fontSize=14;fontStyle=1" vertex="1" parent="1">
          <mxGeometry x="380" y="800" width="160" height="40" as="geometry" />
        </mxCell>
        <mxCell id="mfq0lbZQkEfi0OqsZ-nj-48" value="Layer 4 - hashapp2" style="rounded=0;whiteSpace=wrap;html=1;fontSize=14;fontStyle=1" vertex="1" parent="1">
          <mxGeometry x="380" y="740" width="160" height="40" as="geometry" />
        </mxCell>
        <mxCell id="mfq0lbZQkEfi0OqsZ-nj-49" value="Layer 5 - hashcmd2" style="rounded=0;whiteSpace=wrap;html=1;fontSize=14;fontStyle=1" vertex="1" parent="1">
          <mxGeometry x="380" y="690" width="160" height="40" as="geometry" />
        </mxCell>
        <mxCell id="mfq0lbZQkEfi0OqsZ-nj-50" value="App 2 - dotnet 7.0" style="text;html=1;strokeColor=none;fillColor=none;align=center;verticalAlign=middle;whiteSpace=wrap;rounded=0;fontSize=14;fontStyle=1" vertex="1" parent="1">
          <mxGeometry x="380" y="650" width="160" height="30" as="geometry" />
        </mxCell>
        <mxCell id="mfq0lbZQkEfi0OqsZ-nj-51" value="" style="rounded=1;whiteSpace=wrap;html=1;fontSize=14;fontStyle=1" vertex="1" parent="1">
          <mxGeometry x="600" y="640" width="200" height="320" as="geometry" />
        </mxCell>
        <mxCell id="mfq0lbZQkEfi0OqsZ-nj-52" value="Layer 1 - hashbase1" style="rounded=0;whiteSpace=wrap;html=1;fontSize=14;fontStyle=1" vertex="1" parent="1">
          <mxGeometry x="620" y="900" width="160" height="40" as="geometry" />
        </mxCell>
        <mxCell id="mfq0lbZQkEfi0OqsZ-nj-53" value="Layer 2 - hashbase2" style="rounded=0;whiteSpace=wrap;html=1;fontSize=14;fontStyle=1" vertex="1" parent="1">
          <mxGeometry x="620" y="850" width="160" height="40" as="geometry" />
        </mxCell>
        <mxCell id="mfq0lbZQkEfi0OqsZ-nj-54" value="Layer 3 - hashruntime6" style="rounded=0;whiteSpace=wrap;html=1;fontSize=14;fontStyle=1" vertex="1" parent="1">
          <mxGeometry x="620" y="800" width="160" height="40" as="geometry" />
        </mxCell>
        <mxCell id="mfq0lbZQkEfi0OqsZ-nj-55" value="Layer 4 - hashapp3" style="rounded=0;whiteSpace=wrap;html=1;fontSize=14;fontStyle=1" vertex="1" parent="1">
          <mxGeometry x="620" y="740" width="160" height="40" as="geometry" />
        </mxCell>
        <mxCell id="mfq0lbZQkEfi0OqsZ-nj-56" value="Layer 5 - hashcmd3" style="rounded=0;whiteSpace=wrap;html=1;fontSize=14;fontStyle=1" vertex="1" parent="1">
          <mxGeometry x="620" y="690" width="160" height="40" as="geometry" />
        </mxCell>
        <mxCell id="mfq0lbZQkEfi0OqsZ-nj-57" value="App 3 - dotnet 6.0" style="text;html=1;strokeColor=none;fillColor=none;align=center;verticalAlign=middle;whiteSpace=wrap;rounded=0;fontSize=14;fontStyle=1" vertex="1" parent="1">
          <mxGeometry x="620" y="650" width="160" height="30" as="geometry" />
        </mxCell>
        <mxCell id="mfq0lbZQkEfi0OqsZ-nj-58" value="docker host" style="text;html=1;strokeColor=none;fillColor=none;align=center;verticalAlign=middle;whiteSpace=wrap;rounded=0;fontSize=14;fontStyle=1" vertex="1" parent="1">
          <mxGeometry x="390" y="970" width="150" height="30" as="geometry" />
        </mxCell>
        <mxCell id="mfq0lbZQkEfi0OqsZ-nj-59" style="edgeStyle=orthogonalEdgeStyle;rounded=0;orthogonalLoop=1;jettySize=auto;html=1;exitX=1;exitY=0.5;exitDx=0;exitDy=0;entryX=0;entryY=0.5;entryDx=0;entryDy=0;fontSize=14;fontColor=#00FF00;shape=link;strokeColor=#00FF00;strokeWidth=4;" edge="1" parent="1" source="mfq0lbZQkEfi0OqsZ-nj-40" target="mfq0lbZQkEfi0OqsZ-nj-47">
          <mxGeometry relative="1" as="geometry" />
        </mxCell>
        <mxCell id="mfq0lbZQkEfi0OqsZ-nj-60" style="edgeStyle=orthogonalEdgeStyle;shape=link;rounded=0;orthogonalLoop=1;jettySize=auto;html=1;exitX=1;exitY=0.5;exitDx=0;exitDy=0;entryX=0;entryY=0.5;entryDx=0;entryDy=0;strokeColor=#00FF00;strokeWidth=4;fontSize=14;fontColor=#00FF00;" edge="1" parent="1" source="mfq0lbZQkEfi0OqsZ-nj-39" target="mfq0lbZQkEfi0OqsZ-nj-46">
          <mxGeometry relative="1" as="geometry" />
        </mxCell>
        <mxCell id="mfq0lbZQkEfi0OqsZ-nj-61" style="edgeStyle=orthogonalEdgeStyle;shape=link;rounded=0;orthogonalLoop=1;jettySize=auto;html=1;exitX=1;exitY=0.5;exitDx=0;exitDy=0;entryX=0;entryY=0.5;entryDx=0;entryDy=0;strokeColor=#00FF00;strokeWidth=4;fontSize=14;fontColor=#00FF00;" edge="1" parent="1" source="mfq0lbZQkEfi0OqsZ-nj-38" target="mfq0lbZQkEfi0OqsZ-nj-45">
          <mxGeometry relative="1" as="geometry" />
        </mxCell>
        <mxCell id="mfq0lbZQkEfi0OqsZ-nj-64" value="" style="rounded=0;whiteSpace=wrap;html=1;fillStyle=solid;strokeColor=#FF0000;strokeWidth=1;fontSize=14;fontColor=#00FF00;fillColor=none;" vertex="1" parent="1">
          <mxGeometry x="130" y="790" width="420" height="250" as="geometry" />
        </mxCell>
        <mxCell id="mfq0lbZQkEfi0OqsZ-nj-66" value="&lt;b&gt;dotnet/runtime:7.0&lt;/b&gt;" style="text;html=1;strokeColor=none;fillColor=none;align=center;verticalAlign=middle;whiteSpace=wrap;rounded=0;fontSize=14;fontColor=#FF0000;" vertex="1" parent="1">
          <mxGeometry x="280" y="1010" width="140" height="30" as="geometry" />
        </mxCell>
        <mxCell id="mfq0lbZQkEfi0OqsZ-nj-68" value="" style="rounded=0;whiteSpace=wrap;html=1;" vertex="1" parent="1">
          <mxGeometry x="960" y="600" width="850" height="495" as="geometry" />
        </mxCell>
        <mxCell id="mfq0lbZQkEfi0OqsZ-nj-69" value="" style="rounded=0;whiteSpace=wrap;html=1;fontSize=14;fontStyle=1" vertex="1" parent="1">
          <mxGeometry x="1020" y="950" width="720" height="50" as="geometry" />
        </mxCell>
        <mxCell id="mfq0lbZQkEfi0OqsZ-nj-70" value="" style="rounded=1;whiteSpace=wrap;html=1;fontSize=14;fontStyle=1" vertex="1" parent="1">
          <mxGeometry x="1040" y="640" width="200" height="320" as="geometry" />
        </mxCell>
        <mxCell id="mfq0lbZQkEfi0OqsZ-nj-71" value="Layer 1 - hashbase1" style="rounded=0;whiteSpace=wrap;html=1;fontSize=14;fontStyle=1" vertex="1" parent="1">
          <mxGeometry x="1060" y="900" width="160" height="40" as="geometry" />
        </mxCell>
        <mxCell id="mfq0lbZQkEfi0OqsZ-nj-72" value="Layer 2 - hashbase2" style="rounded=0;whiteSpace=wrap;html=1;fontSize=14;fontStyle=1" vertex="1" parent="1">
          <mxGeometry x="1060" y="850" width="160" height="40" as="geometry" />
        </mxCell>
        <mxCell id="mfq0lbZQkEfi0OqsZ-nj-73" value="Layer 3 - hashruntime7" style="rounded=0;whiteSpace=wrap;html=1;fontSize=14;fontStyle=1" vertex="1" parent="1">
          <mxGeometry x="1060" y="800" width="160" height="40" as="geometry" />
        </mxCell>
        <mxCell id="mfq0lbZQkEfi0OqsZ-nj-74" value="Layer 4 - hashapp1" style="rounded=0;whiteSpace=wrap;html=1;fontSize=14;fontStyle=1" vertex="1" parent="1">
          <mxGeometry x="1060" y="740" width="160" height="40" as="geometry" />
        </mxCell>
        <mxCell id="mfq0lbZQkEfi0OqsZ-nj-75" value="Layer 5 - hashcmd1" style="rounded=0;whiteSpace=wrap;html=1;fontSize=14;fontStyle=1" vertex="1" parent="1">
          <mxGeometry x="1060" y="690" width="160" height="40" as="geometry" />
        </mxCell>
        <mxCell id="mfq0lbZQkEfi0OqsZ-nj-76" value="App 1 - dotnet 7.0" style="text;html=1;strokeColor=none;fillColor=none;align=center;verticalAlign=middle;whiteSpace=wrap;rounded=0;fontSize=14;fontStyle=1" vertex="1" parent="1">
          <mxGeometry x="1060" y="650" width="160" height="30" as="geometry" />
        </mxCell>
        <mxCell id="mfq0lbZQkEfi0OqsZ-nj-77" value="" style="rounded=1;whiteSpace=wrap;html=1;fontSize=14;fontStyle=1" vertex="1" parent="1">
          <mxGeometry x="1280" y="640" width="200" height="320" as="geometry" />
        </mxCell>
        <mxCell id="mfq0lbZQkEfi0OqsZ-nj-78" value="Layer 1 - hashbase1" style="rounded=0;whiteSpace=wrap;html=1;fontSize=14;fontStyle=1" vertex="1" parent="1">
          <mxGeometry x="1300" y="900" width="160" height="40" as="geometry" />
        </mxCell>
        <mxCell id="mfq0lbZQkEfi0OqsZ-nj-79" value="Layer 2 - hashbase2" style="rounded=0;whiteSpace=wrap;html=1;fontSize=14;fontStyle=1" vertex="1" parent="1">
          <mxGeometry x="1300" y="850" width="160" height="40" as="geometry" />
        </mxCell>
        <mxCell id="mfq0lbZQkEfi0OqsZ-nj-80" value="Layer 3 - hashruntime7" style="rounded=0;whiteSpace=wrap;html=1;fontSize=14;fontStyle=1" vertex="1" parent="1">
          <mxGeometry x="1300" y="800" width="160" height="40" as="geometry" />
        </mxCell>
        <mxCell id="mfq0lbZQkEfi0OqsZ-nj-81" value="Layer 4 - hashapp2" style="rounded=0;whiteSpace=wrap;html=1;fontSize=14;fontStyle=1" vertex="1" parent="1">
          <mxGeometry x="1300" y="740" width="160" height="40" as="geometry" />
        </mxCell>
        <mxCell id="mfq0lbZQkEfi0OqsZ-nj-82" value="Layer 5 - hashcmd2" style="rounded=0;whiteSpace=wrap;html=1;fontSize=14;fontStyle=1" vertex="1" parent="1">
          <mxGeometry x="1300" y="690" width="160" height="40" as="geometry" />
        </mxCell>
        <mxCell id="mfq0lbZQkEfi0OqsZ-nj-83" value="App 2 - dotnet 7.0" style="text;html=1;strokeColor=none;fillColor=none;align=center;verticalAlign=middle;whiteSpace=wrap;rounded=0;fontSize=14;fontStyle=1" vertex="1" parent="1">
          <mxGeometry x="1300" y="650" width="160" height="30" as="geometry" />
        </mxCell>
        <mxCell id="mfq0lbZQkEfi0OqsZ-nj-84" value="" style="rounded=1;whiteSpace=wrap;html=1;fontSize=14;fontStyle=1" vertex="1" parent="1">
          <mxGeometry x="1520" y="640" width="200" height="320" as="geometry" />
        </mxCell>
        <mxCell id="mfq0lbZQkEfi0OqsZ-nj-85" value="Layer 1 - hashbase1" style="rounded=0;whiteSpace=wrap;html=1;fontSize=14;fontStyle=1" vertex="1" parent="1">
          <mxGeometry x="1540" y="900" width="160" height="40" as="geometry" />
        </mxCell>
        <mxCell id="mfq0lbZQkEfi0OqsZ-nj-86" value="Layer 2 - hashbase2" style="rounded=0;whiteSpace=wrap;html=1;fontSize=14;fontStyle=1" vertex="1" parent="1">
          <mxGeometry x="1540" y="850" width="160" height="40" as="geometry" />
        </mxCell>
        <mxCell id="mfq0lbZQkEfi0OqsZ-nj-87" value="Layer 3 - hashruntime6" style="rounded=0;whiteSpace=wrap;html=1;fontSize=14;fontStyle=1" vertex="1" parent="1">
          <mxGeometry x="1540" y="800" width="160" height="40" as="geometry" />
        </mxCell>
        <mxCell id="mfq0lbZQkEfi0OqsZ-nj-88" value="Layer 4 - hashapp3" style="rounded=0;whiteSpace=wrap;html=1;fontSize=14;fontStyle=1" vertex="1" parent="1">
          <mxGeometry x="1540" y="740" width="160" height="40" as="geometry" />
        </mxCell>
        <mxCell id="mfq0lbZQkEfi0OqsZ-nj-89" value="Layer 5 - hashcmd3" style="rounded=0;whiteSpace=wrap;html=1;fontSize=14;fontStyle=1" vertex="1" parent="1">
          <mxGeometry x="1540" y="690" width="160" height="40" as="geometry" />
        </mxCell>
        <mxCell id="mfq0lbZQkEfi0OqsZ-nj-90" value="App 3 - dotnet 6.0" style="text;html=1;strokeColor=none;fillColor=none;align=center;verticalAlign=middle;whiteSpace=wrap;rounded=0;fontSize=14;fontStyle=1" vertex="1" parent="1">
          <mxGeometry x="1540" y="650" width="160" height="30" as="geometry" />
        </mxCell>
        <mxCell id="mfq0lbZQkEfi0OqsZ-nj-91" value="docker host" style="text;html=1;strokeColor=none;fillColor=none;align=center;verticalAlign=middle;whiteSpace=wrap;rounded=0;fontSize=14;fontStyle=1" vertex="1" parent="1">
          <mxGeometry x="1310" y="970" width="150" height="30" as="geometry" />
        </mxCell>
        <mxCell id="mfq0lbZQkEfi0OqsZ-nj-92" style="edgeStyle=orthogonalEdgeStyle;rounded=0;orthogonalLoop=1;jettySize=auto;html=1;exitX=1;exitY=0.5;exitDx=0;exitDy=0;entryX=0;entryY=0.5;entryDx=0;entryDy=0;fontSize=14;fontColor=#00FF00;shape=link;strokeColor=#00FF00;strokeWidth=4;" edge="1" parent="1" source="mfq0lbZQkEfi0OqsZ-nj-73" target="mfq0lbZQkEfi0OqsZ-nj-80">
          <mxGeometry relative="1" as="geometry" />
        </mxCell>
        <mxCell id="mfq0lbZQkEfi0OqsZ-nj-93" style="edgeStyle=orthogonalEdgeStyle;shape=link;rounded=0;orthogonalLoop=1;jettySize=auto;html=1;exitX=1;exitY=0.5;exitDx=0;exitDy=0;entryX=0;entryY=0.5;entryDx=0;entryDy=0;strokeColor=#00FF00;strokeWidth=4;fontSize=14;fontColor=#00FF00;" edge="1" parent="1" source="mfq0lbZQkEfi0OqsZ-nj-72" target="mfq0lbZQkEfi0OqsZ-nj-79">
          <mxGeometry relative="1" as="geometry" />
        </mxCell>
        <mxCell id="mfq0lbZQkEfi0OqsZ-nj-94" style="edgeStyle=orthogonalEdgeStyle;shape=link;rounded=0;orthogonalLoop=1;jettySize=auto;html=1;exitX=1;exitY=0.5;exitDx=0;exitDy=0;entryX=0;entryY=0.5;entryDx=0;entryDy=0;strokeColor=#00FF00;strokeWidth=4;fontSize=14;fontColor=#00FF00;" edge="1" parent="1" source="mfq0lbZQkEfi0OqsZ-nj-71" target="mfq0lbZQkEfi0OqsZ-nj-78">
          <mxGeometry relative="1" as="geometry" />
        </mxCell>
        <mxCell id="mfq0lbZQkEfi0OqsZ-nj-95" style="edgeStyle=orthogonalEdgeStyle;shape=link;rounded=0;orthogonalLoop=1;jettySize=auto;html=1;exitX=1;exitY=0.5;exitDx=0;exitDy=0;entryX=0;entryY=0.5;entryDx=0;entryDy=0;strokeColor=#00FF00;strokeWidth=4;fontSize=14;fontColor=#00FF00;" edge="1" parent="1" source="mfq0lbZQkEfi0OqsZ-nj-78" target="mfq0lbZQkEfi0OqsZ-nj-85">
          <mxGeometry relative="1" as="geometry" />
        </mxCell>
        <mxCell id="mfq0lbZQkEfi0OqsZ-nj-96" style="edgeStyle=orthogonalEdgeStyle;shape=link;rounded=0;orthogonalLoop=1;jettySize=auto;html=1;exitX=1;exitY=0.5;exitDx=0;exitDy=0;entryX=0;entryY=0.5;entryDx=0;entryDy=0;strokeColor=#00FF00;strokeWidth=4;fontSize=14;fontColor=#00FF00;" edge="1" parent="1" source="mfq0lbZQkEfi0OqsZ-nj-79" target="mfq0lbZQkEfi0OqsZ-nj-86">
          <mxGeometry relative="1" as="geometry" />
        </mxCell>
        <mxCell id="mfq0lbZQkEfi0OqsZ-nj-97" value="" style="rounded=0;whiteSpace=wrap;html=1;fillStyle=solid;strokeColor=#FF0000;strokeWidth=1;fontSize=14;fontColor=#00FF00;fillColor=none;" vertex="1" parent="1">
          <mxGeometry x="1050" y="790" width="420" height="250" as="geometry" />
        </mxCell>
        <mxCell id="mfq0lbZQkEfi0OqsZ-nj-98" value="" style="rounded=0;whiteSpace=wrap;html=1;fillStyle=solid;strokeColor=#0000FF;strokeWidth=1;fontSize=14;fontColor=#00FF00;fillColor=none;" vertex="1" parent="1">
          <mxGeometry x="1530" y="790" width="200" height="250" as="geometry" />
        </mxCell>
        <mxCell id="mfq0lbZQkEfi0OqsZ-nj-99" value="&lt;b&gt;dotnet/runtime:7.0&lt;/b&gt;" style="text;html=1;strokeColor=none;fillColor=none;align=center;verticalAlign=middle;whiteSpace=wrap;rounded=0;fontSize=14;fontColor=#FF0000;" vertex="1" parent="1">
          <mxGeometry x="1200" y="1010" width="140" height="30" as="geometry" />
        </mxCell>
        <mxCell id="mfq0lbZQkEfi0OqsZ-nj-100" value="&lt;b&gt;&lt;font color=&quot;#0000ff&quot;&gt;dotnet/runtime:6.0&lt;/font&gt;&lt;/b&gt;" style="text;html=1;strokeColor=none;fillColor=none;align=center;verticalAlign=middle;whiteSpace=wrap;rounded=0;fontSize=14;fontColor=#FF0000;" vertex="1" parent="1">
          <mxGeometry x="1550" y="1010" width="140" height="30" as="geometry" />
        </mxCell>
      </root>
    </mxGraphModel>
  </diagram>
</mxfile>
